<svg width="32" height="30" viewBox="0 0 32 30" fill="none" xmlns="http://www.w3.org/2000/svg">
<path d="M25.3333 24C26.1732 24 26.9786 24.3161 27.5725 24.8787C28.1664 25.4413 28.5 26.2043 28.5 27C28.5 27.7956 28.1664 28.5587 27.5725 29.1213C26.9786 29.6839 26.1732 30 25.3333 30C24.4935 30 23.688 29.6839 23.0942 29.1213C22.5003 28.5587 22.1667 27.7956 22.1667 27C22.1667 25.335 23.5758 24 25.3333 24ZM0 0H5.1775L6.66583 3H30.0833C30.5033 3 30.906 3.15804 31.2029 3.43934C31.4999 3.72064 31.6667 4.10217 31.6667 4.5C31.6667 4.755 31.5875 5.01 31.4767 5.25L25.8083 14.955C25.27 15.87 24.225 16.5 23.0375 16.5H11.2417L9.81667 18.945L9.76917 19.125C9.76917 19.2245 9.81087 19.3198 9.8851 19.3902C9.95934 19.4605 10.06 19.5 10.165 19.5H28.5V22.5H9.5C8.66015 22.5 7.85469 22.1839 7.26083 21.6213C6.66696 21.0587 6.33333 20.2956 6.33333 19.5C6.33333 18.975 6.47583 18.48 6.71333 18.06L8.86667 14.385L3.16667 3H0V0ZM9.5 24C10.3399 24 11.1453 24.3161 11.7392 24.8787C12.333 25.4413 12.6667 26.2043 12.6667 27C12.6667 27.7956 12.333 28.5587 11.7392 29.1213C11.1453 29.6839 10.3399 30 9.5 30C8.66015 30 7.85469 29.6839 7.26083 29.1213C6.66696 28.5587 6.33333 27.7956 6.33333 27C6.33333 25.335 7.7425 24 9.5 24ZM23.75 13.5L28.1517 6H8.13833L11.875 13.5H23.75Z" fill="black"/>
</svg>
