<svg width="18" height="11" viewBox="0 0 18 11" fill="none" xmlns="http://www.w3.org/2000/svg">
<path fill-rule="evenodd" clip-rule="evenodd" d="M10.083 10.2223C9.833 10.4722 9.49392 10.6126 9.14037 10.6126C8.78682 10.6126 8.44774 10.4722 8.1977 10.2223L0.655037 2.67959C0.52769 2.5566 0.426114 2.40947 0.356235 2.2468C0.286356 2.08413 0.249575 1.90917 0.248036 1.73213C0.246498 1.55509 0.280234 1.37951 0.347275 1.21565C0.414316 1.05179 0.51332 0.902921 0.638511 0.777731C0.763701 0.652541 0.91257 0.553537 1.07643 0.486495C1.24029 0.419454 1.41587 0.385719 1.59291 0.387257C1.76994 0.388796 1.9449 0.425578 2.10758 0.495456C2.27025 0.565335 2.41737 0.666911 2.54037 0.794258L9.14037 7.39426L15.7404 0.794258C15.9918 0.55138 16.3286 0.416988 16.6782 0.420026C17.0278 0.423064 17.3623 0.563288 17.6095 0.810499C17.8567 1.05771 17.9969 1.39213 17.9999 1.74172C18.003 2.09132 17.8686 2.42812 17.6257 2.67959L10.083 10.2223Z" fill="#7C7A7A"/>
</svg>
