<svg width="42" height="43" viewBox="0 0 42 43" fill="none" xmlns="http://www.w3.org/2000/svg">
<path fill-rule="evenodd" clip-rule="evenodd" d="M28.2864 9.88631C28.9014 9.27123 29.8987 9.27123 30.5137 9.88631C31.1288 10.5014 31.1288 11.4986 30.5137 12.1137L22.1774 20.45L30.5137 28.7863C31.1288 29.4014 31.1288 30.3986 30.5137 31.0137C29.8987 31.6288 28.9014 31.6288 28.2864 31.0137L19.9501 22.6774L11.6137 31.0137C10.9987 31.6288 10.0014 31.6288 9.38636 31.0137C8.77128 30.3986 8.77128 29.4014 9.38636 28.7863L17.7227 20.45L9.38636 12.1137C8.77128 11.4986 8.77128 10.5014 9.38636 9.88631C10.0014 9.27123 10.9987 9.27123 11.6137 9.88631L19.9501 18.2226L28.2864 9.88631Z" fill="#676879"/>
</svg>
