<svg width="30" height="30" viewBox="0 0 30 30" fill="none" xmlns="http://www.w3.org/2000/svg">
<path d="M20.4427 4.08163C21.3242 3.28776 22.485 2.87658 23.6696 2.93855C24.8543 3.00052 25.9658 3.53056 26.7597 4.41206C27.5536 5.29356 27.9647 6.45432 27.9028 7.63899C27.8408 8.82365 27.3108 9.93518 26.4293 10.729L25.2574 11.7854L19.2721 5.13681L20.4427 4.08163ZM17.8795 6.3919L4.74254 18.2193C4.2089 18.6998 3.81898 19.319 3.61614 20.0078L1.94821 25.6808C1.90304 25.8345 1.898 25.9971 1.93355 26.1533C1.9691 26.3095 2.04407 26.4539 2.15131 26.5729C2.25854 26.6918 2.39446 26.7813 2.54611 26.8329C2.69776 26.8844 2.86008 26.8962 3.01758 26.8671L8.83265 25.8C9.53938 25.6705 10.1963 25.3475 10.7303 24.8668L23.8648 13.0393L17.8795 6.3919Z" fill="#7A7C8F"/>
</svg>
