<svg width="50" height="50" viewBox="0 0 50 50" fill="none" xmlns="http://www.w3.org/2000/svg">
<path d="M42.1446 4.1962C45.4043 6.13991 47.4313 8.83036 48.4373 12.5C48.8274 16.8359 48.5739 20.5994 45.8006 24.1455C43.5906 26.5118 40.838 27.9653 37.6036 28.2563C33.4571 28.3495 29.9632 27.8798 26.7973 24.939C23.657 21.3238 23.1525 17.8798 23.3673 13.2613C23.6372 10.3264 25.1826 7.80231 27.3436 5.8594C31.5384 2.70492 37.3306 1.88609 42.1446 4.1962ZM32.8123 10.9375C32.9412 11.5821 33.0702 12.2266 33.203 12.8907C33.5897 12.8907 33.9764 12.8907 34.3748 12.8907C34.3409 13.8516 34.2992 14.8111 34.2528 15.7715C34.244 16.0444 34.2351 16.3173 34.2261 16.5985C34.1841 17.392 34.1841 17.392 33.9842 18.75C33.5975 19.0078 33.2108 19.2657 32.8123 19.5313C32.9469 20.4972 32.9469 20.4972 33.203 21.4844C34.1653 21.9656 34.8395 21.9404 35.9129 21.9483C36.4258 21.9566 36.4258 21.9566 36.949 21.9651C37.993 21.9401 37.993 21.9401 39.0623 21.0938C38.9278 20.1279 38.9278 20.1279 38.6717 19.1407C38.4139 19.0117 38.1561 18.8828 37.8905 18.75C37.8827 18.5195 37.875 18.289 37.867 18.0515C37.8298 17.0065 37.7869 15.9618 37.744 14.917C37.7319 14.5542 37.7198 14.1914 37.7074 13.8176C37.6923 13.4689 37.6771 13.1202 37.6616 12.761C37.6493 12.4398 37.637 12.1186 37.6244 11.7877C37.5453 10.8244 37.5453 10.8244 36.7186 9.76565C35.074 9.49896 34.1542 10.0174 32.8123 10.9375Z" fill="#565555"/>
<path d="M21.4839 1.56258C22.99 2.34249 23.6707 2.88956 24.6089 4.29695C24.4624 5.34676 24.4624 5.34676 24.2183 6.25008C23.1197 6.51863 23.1197 6.51863 21.8745 6.6407C21.4757 6.25848 21.0852 5.86734 20.7027 5.46883C19.4818 5.37098 19.4818 5.37098 18.3589 5.46883C18.1011 6.24227 17.8433 7.0157 17.5777 7.81258C17.9322 7.73201 18.2867 7.65144 18.6519 7.56844C19.9645 7.41698 20.4061 7.49847 21.4839 8.2032C21.4839 8.97664 21.4839 9.75008 21.4839 10.547C20.0836 11.1537 18.7552 11.5001 17.2603 11.7921C14.5259 12.4647 12.771 13.6722 11.1949 16.0111C9.81452 18.541 9.73753 21.1837 9.65178 24.0133C9.49818 28.9334 8.86989 32.65 6.64017 37.1095C15.148 37.1095 23.6558 37.1095 32.4214 37.1095C31.9058 36.0782 31.3902 35.047 30.8589 33.9845C30.7613 32.422 30.7613 32.422 30.8589 31.2501C32.2124 31.0567 32.2124 31.0567 33.5933 30.8595C33.8098 31.2688 34.0263 31.6782 34.2494 32.1C34.5352 32.6386 34.8211 33.1773 35.107 33.7159C35.3207 34.1204 35.3207 34.1204 35.5388 34.533C35.6773 34.7936 35.8157 35.0542 35.9584 35.3226C36.0852 35.562 36.2121 35.8013 36.3427 36.0479C36.697 36.6808 37.0972 37.2872 37.4995 37.8907C37.5728 39.1114 37.5728 39.1114 37.4995 40.2345C37.1089 40.6251 37.1089 40.6251 36.2398 40.6694C35.6783 40.6664 35.6783 40.6664 35.1054 40.6632C34.4993 40.6613 34.4993 40.6613 33.8809 40.6594C33.4557 40.6561 33.0304 40.6529 32.5923 40.6495C31.9522 40.6468 31.9522 40.6468 31.2991 40.6441C30.2409 40.6395 29.1827 40.6331 28.1245 40.6251C28.1366 41.048 28.1487 41.471 28.1612 41.9068C28.1064 44.0789 27.2852 45.3634 25.8037 46.8598C23.2832 49.1342 21.5333 49.3566 18.1468 49.3287C15.467 49.1107 13.8406 47.7235 12.1089 45.7032C10.9871 43.9238 10.8905 42.6999 10.937 40.6251C10.6669 40.6271 10.3968 40.6292 10.1185 40.6313C8.9021 40.6394 7.6857 40.6445 6.46927 40.6495C6.04403 40.6528 5.61879 40.656 5.18067 40.6594C4.77658 40.6607 4.37249 40.6619 3.95615 40.6632C3.5818 40.6653 3.20745 40.6673 2.82176 40.6694C1.95267 40.6251 1.95267 40.6251 1.56205 40.2345C1.24763 38.4827 1.71032 37.5405 2.63627 36.1085C5.47184 31.6469 5.72819 26.9213 5.84214 21.769C6.01338 17.845 7.01596 14.7373 9.59427 11.7188C9.90848 11.461 10.2227 11.2032 10.5464 10.9376C10.8767 10.6475 11.2071 10.3575 11.5474 10.0587C12.456 9.40631 12.9964 9.20976 14.062 8.98445C14.0417 8.59547 14.0417 8.59547 14.0208 8.19863C13.9113 4.62409 13.9113 4.62409 15.2339 3.12508C17.1593 1.38753 18.9939 1.15432 21.4839 1.56258ZM14.4527 40.6251C14.8743 42.7332 15.1438 43.2026 16.7339 44.4596C18.2997 45.3176 19.769 45.3363 21.4839 44.922C22.6075 44.3063 23.4753 43.6256 24.2183 42.5782C24.3472 41.9337 24.4761 41.2891 24.6089 40.6251C21.2574 40.6251 17.9058 40.6251 14.4527 40.6251Z" fill="#001738"/>
</svg>
