<svg width="22" height="22" viewBox="0 0 22 22" fill="none" xmlns="http://www.w3.org/2000/svg">
<path d="M18.2188 6.875C18.2188 7.1485 18.1102 7.41081 17.9168 7.6042C17.7234 7.7976 17.4611 7.90625 17.1876 7.90625H14.7813C14.7797 9.36445 14.1997 10.7625 13.1686 11.7936C12.1375 12.8247 10.7395 13.4047 9.28131 13.4063H8.85163L14.4376 18.4869C14.5396 18.5774 14.6227 18.6874 14.682 18.8103C14.7413 18.9332 14.7756 19.0666 14.783 19.2029C14.7903 19.3392 14.7705 19.4756 14.7247 19.6041C14.679 19.7327 14.6082 19.8509 14.5164 19.9519C14.4246 20.0529 14.3137 20.1346 14.1901 20.1925C14.0665 20.2503 13.9326 20.283 13.7962 20.2887C13.6599 20.2944 13.5238 20.2729 13.3958 20.2256C13.2678 20.1783 13.1504 20.1061 13.0505 20.0131L5.48803 13.1381C5.33362 12.9978 5.22542 12.8139 5.17771 12.6108C5.13 12.4076 5.14503 12.1948 5.22082 12.0004C5.29661 11.806 5.42959 11.6392 5.6022 11.5219C5.7748 11.4047 5.97891 11.3426 6.18757 11.3438H9.28131C10.193 11.3438 11.0673 10.9816 11.712 10.3369C12.3567 9.69227 12.7188 8.81793 12.7188 7.90625H6.18757C5.91406 7.90625 5.65176 7.7976 5.45836 7.6042C5.26496 7.41081 5.15632 7.1485 5.15632 6.875C5.15632 6.6015 5.26496 6.33919 5.45836 6.1458C5.65176 5.9524 5.91406 5.84375 6.18757 5.84375H12.0313C11.7111 5.41683 11.2959 5.07031 10.8186 4.83166C10.3413 4.593 9.81497 4.46875 9.28131 4.46875H6.18757C5.91406 4.46875 5.65176 4.3601 5.45836 4.1667C5.26496 3.97331 5.15632 3.711 5.15632 3.4375C5.15632 3.164 5.26496 2.90169 5.45836 2.7083C5.65176 2.5149 5.91406 2.40625 6.18757 2.40625H17.1876C17.4611 2.40625 17.7234 2.5149 17.9168 2.7083C18.1102 2.90169 18.2188 3.164 18.2188 3.4375C18.2188 3.711 18.1102 3.97331 17.9168 4.1667C17.7234 4.3601 17.4611 4.46875 17.1876 4.46875H13.5705C13.9051 4.8854 14.1772 5.34861 14.3783 5.84375H17.1876C17.4611 5.84375 17.7234 5.9524 17.9168 6.1458C18.1102 6.33919 18.2188 6.6015 18.2188 6.875Z" fill="#444650"/>
</svg>
